<?xml version="1.0" encoding="UTF-8" standalone="no"?>
<svg id="svg6029" xmlns:rdf="http://www.w3.org/1999/02/22-rdf-syntax-ns#" xmlns="http://www.w3.org/2000/svg" height="297mm" width="210mm" version="1.1" xmlns:cc="http://creativecommons.org/ns#" viewBox="0 0 210 297" xmlns:dc="http://purl.org/dc/elements/1.1/">
 <defs id="defs6023">
  <filter id="filter7693" style="color-interpolation-filters:sRGB">
   <feFlood id="feFlood7683" flood-color="rgb(162,165,165)" flood-opacity=".92549" result="flood"/>
   <feComposite id="feComposite7685" operator="in" in="flood" in2="SourceGraphic" result="composite1"/>
   <feGaussianBlur id="feGaussianBlur7687" in="composite1" stdDeviation="2.8" result="blur"/>
   <feOffset id="feOffset7689" dy="-2.2" dx="1.1" result="offset"/>
   <feComposite id="feComposite7691" operator="over" in="SourceGraphic" in2="offset" result="composite2"/>
  </filter>
 </defs>
 <metadata id="metadata6026">
  <rdf:RDF>
   <cc:Work rdf:about="">
    <dc:format>image/svg+xml</dc:format>
    <dc:type rdf:resource="http://purl.org/dc/dcmitype/StillImage"/>
    <dc:title/>
    <cc:license rdf:resource="http://creativecommons.org/publicdomain/zero/1.0/"/>
   </cc:Work>
   <cc:License rdf:about="http://creativecommons.org/publicdomain/zero/1.0/">
    <cc:permits rdf:resource="http://creativecommons.org/ns#Reproduction"/>
    <cc:permits rdf:resource="http://creativecommons.org/ns#Distribution"/>
    <cc:permits rdf:resource="http://creativecommons.org/ns#DerivativeWorks"/>
   </cc:License>
  </rdf:RDF>
 </metadata>
 <g id="layer1" filter="url(#filter7693)" fill="#fff">
  <path id="path6617" style="paint-order:markers fill stroke" d="m100.86 25.487-2.7146 7.1954-7.6502 0.79478 6.0048 4.8054-1.6082 7.521 4.593-3.02-17.673 35.419-24.404 36.657 19.021 0.57722c-6.8915 19.472-18.714 38.944-31.658 58.416l26.559 0.80615c-10.63 19.687-26.19 41.839-42.49 64.361l63.969-3.083v41.55h15.875v-41.619l63.087 3.3657c-14.665-20.82-28.99-41.776-38.946-64.479l26.705-0.73071c-11.78-18.9-23.71-37.69-32.56-58.55l18.351-0.50229-24.295-36.73-17.551-35.44 4.5077 2.6097-2.0335-7.4171 5.7216-5.1392-7.6822-0.35864z" fill="#fff"/>
 </g>
</svg>
